<?xml version="1.0" encoding="UTF-8"?>
<svg xmlns="http://www.w3.org/2000/svg" version="1.1" viewBox="0 0 372.4 217.5">
  <defs>
    <style>
      .cls-1 {
        fill: #1d72b8;
      }
    </style>
  </defs>
  <!-- Generator: Adobe Illustrator 28.7.10, SVG Export Plug-In . SVG Version: 1.2.0 Build 236)  -->
  <g>
    <g id="Layer_1">
      <path class="cls-1" d="M186.7,150.6c3.6-3.7,7.1-7.5,10.7-11.1,44.7-44.8,89.4-89.6,134.1-134.4,6.7-6.7,13-6.8,19.7,0,5.4,5.4,10.8,10.9,16.2,16.3,6.6,6.7,6.7,12.8.1,19.4-45.9,46-91.7,91.9-137.6,137.8-11.2,11.2-22.3,22.4-33.6,33.6-1.9,1.9-4.1,3.6-6.5,4.6-4.6,1.9-8.8.3-12.2-3.1-8.4-8.3-16.8-16.7-25.2-25.1-31.9-32-63.8-64-95.8-95.9C39.2,75.1,21.8,57.7,4.4,40.2c-5.7-5.7-5.8-12.2-.3-17.9,5.7-5.9,11.6-11.8,17.5-17.5,6.6-6.4,12.6-6.3,19.2.2,27.7,27.7,55.3,55.4,83,83.1,19.8,19.9,39.7,39.7,59.5,59.7.9.9,1.4,2.2,2.1,3.3.5-.1.9-.2,1.4-.4h0Z"/>
    </g>
  </g>
</svg>