<?xml version="1.0" encoding="UTF-8"?>
<svg xmlns="http://www.w3.org/2000/svg" xmlns:xlink="http://www.w3.org/1999/xlink" viewBox="0 0 43.76 32.48">
  <defs>
    <style>
      .cls-1 {
        fill: #ffc000;
      }

      .cls-1, .cls-2, .cls-3, .cls-4, .cls-5, .cls-6, .cls-7, .cls-8, .cls-9, .cls-10, .cls-11, .cls-12, .cls-13, .cls-14, .cls-15, .cls-16, .cls-17, .cls-18, .cls-19 {
        stroke-width: 0px;
      }

      .cls-2, .cls-14, .cls-16 {
        fill: #ffde00;
      }

      .cls-3 {
        fill: #fabc00;
      }

      .cls-4 {
        opacity: .11;
      }

      .cls-4, .cls-9, .cls-10, .cls-15 {
        mix-blend-mode: multiply;
      }

      .cls-4, .cls-9, .cls-15 {
        fill: #a20012;
      }

      .cls-20 {
        opacity: .6;
      }

      .cls-5 {
        fill: #ffaf00;
      }

      .cls-21 {
        isolation: isolate;
      }

      .cls-6 {
        fill: #fff;
        mix-blend-mode: overlay;
      }

      .cls-7 {
        fill: none;
      }

      .cls-8 {
        fill: #f0a700;
      }

      .cls-22 {
        clip-path: url(#clippath-1);
      }

      .cls-9 {
        opacity: .15;
      }

      .cls-10 {
        fill: #69001a;
        opacity: .18;
      }

      .cls-11 {
        fill: #15b5ea;
      }

      .cls-12 {
        fill: #ffe600;
      }

      .cls-13 {
        fill: #ffe745;
      }

      .cls-23 {
        clip-path: url(#clippath);
      }

      .cls-14 {
        opacity: .25;
      }

      .cls-15 {
        opacity: .21;
      }

      .cls-16 {
        opacity: .59;
      }

      .cls-17 {
        fill: #fd0;
      }

      .cls-18 {
        fill: #d48200;
      }

      .cls-19 {
        fill: #ffc30d;
      }
    </style>
    <clipPath id="clippath">
      <path class="cls-7" d="m27.81,18.07c0,2.47-2,4.35-4.47,4.35s-4.47-1.88-4.47-4.35,2-4.47,4.47-4.47,4.47,2,4.47,4.47Z"/>
    </clipPath>
    <clipPath id="clippath-1">
      <path class="cls-7" d="m23.38,23.94c-3.37,0-6.01-2.58-6.01-5.86s2.7-6.01,6.01-6.01,6.01,2.7,6.01,6.01-2.64,5.86-6.01,5.86Z"/>
    </clipPath>
  </defs>
  <g class="cls-21">
    <g id="Layer_1" data-name="Layer 1">
      <g>
        <polygon class="cls-11" points="15.65 32.39 0 32.37 31.35 1.02 39.19 8.85 15.65 32.39"/>
        <path class="cls-11" d="m39.83,17.24L22.96.37c-.14-.14-.03-.38.16-.37l16.15.71c.12,0,.22.1.22.22l.71,16.15c0,.2-.23.3-.37.16Z"/>
        <polygon class="cls-10" points="2.37 32.35 19.84 15.27 28.07 19.97 15.65 32.39 2.37 32.35"/>
      </g>
      <g>
        <g>
          <path class="cls-19" d="m27.85,18.9c0,2.49-2.02,4.39-4.51,4.39s-4.51-1.9-4.51-4.39,2.02-4.51,4.51-4.51,4.51,2.02,4.51,4.51Z"/>
          <path class="cls-17" d="m23.33,23.94c-3.37,0-6.01-2.58-6.01-5.86s2.7-6.01,6.01-6.01,6.01,2.7,6.01,6.01-2.64,5.86-6.01,5.86Z"/>
          <path class="cls-6" d="m23.33,13.25c-2.78,0-5.05,2.27-5.05,5.05s2.22,4.9,5.05,4.9,5.05-2.15,5.05-4.9-2.27-5.05-5.05-5.05Z"/>
          <path class="cls-8" d="m23.38,12.98c-2.78,0-5.05,2.27-5.05,5.05s2.22,4.9,5.05,4.9,5.05-2.15,5.05-4.9-2.27-5.05-5.05-5.05Z"/>
          <path class="cls-1" d="m23.33,13.16c-2.78,0-5.05,2.27-5.05,5.05s2.22,4.9,5.05,4.9,5.05-2.15,5.05-4.9-2.27-5.05-5.05-5.05Z"/>
          <g class="cls-23">
            <rect class="cls-17" x="22.43" y="10.3" width="1.06" height="12.59" transform="translate(18.46 -11.37) rotate(45)"/>
            <rect class="cls-17" x="23.07" y="11.93" width="2.49" height="13.59" transform="translate(20.37 -11.71) rotate(45)"/>
          </g>
        </g>
        <g>
          <rect class="cls-18" x="5.38" y="30.02" width="11.86" height="2.46" rx=".07" ry=".07"/>
          <rect class="cls-1" x="5.38" y="29.63" width="11.86" height="2.74" rx=".07" ry=".07"/>
          <rect class="cls-5" x="6.07" y="29.63" width="2.5" height="2.74" transform="translate(14.64 62) rotate(180)"/>
          <rect class="cls-2" x="14.86" y="29.63" width=".88" height="2.74" transform="translate(30.6 62) rotate(180)"/>
          <g class="cls-20">
            <path class="cls-12" d="m5.95,32.18c-.05,0-.1-.04-.1-.1v-2.14c0-.05.04-.1.1-.1s.1.04.1.1v2.14c0,.05-.04.1-.1.1Z"/>
            <path class="cls-12" d="m6.71,32.18c-.05,0-.1-.04-.1-.1v-2.14c0-.05.04-.1.1-.1s.1.04.1.1v2.14c0,.05-.04.1-.1.1Z"/>
            <path class="cls-12" d="m7.48,32.18c-.05,0-.1-.04-.1-.1v-2.14c0-.05.04-.1.1-.1s.1.04.1.1v2.14c0,.05-.04.1-.1.1Z"/>
            <path class="cls-12" d="m8.24,32.18c-.05,0-.1-.04-.1-.1v-2.14c0-.05.04-.1.1-.1s.1.04.1.1v2.14c0,.05-.04.1-.1.1Z"/>
            <path class="cls-12" d="m9.01,32.18c-.05,0-.1-.04-.1-.1v-2.14c0-.05.04-.1.1-.1s.1.04.1.1v2.14c0,.05-.04.1-.1.1Z"/>
            <path class="cls-12" d="m9.78,32.18c-.05,0-.1-.04-.1-.1v-2.14c0-.05.04-.1.1-.1s.1.04.1.1v2.14c0,.05-.04.1-.1.1Z"/>
            <path class="cls-12" d="m10.54,32.18c-.05,0-.1-.04-.1-.1v-2.14c0-.05.04-.1.1-.1s.1.04.1.1v2.14c0,.05-.04.1-.1.1Z"/>
            <path class="cls-12" d="m11.31,32.18c-.05,0-.1-.04-.1-.1v-2.14c0-.05.04-.1.1-.1s.1.04.1.1v2.14c0,.05-.04.1-.1.1Z"/>
            <path class="cls-12" d="m12.08,32.18c-.05,0-.1-.04-.1-.1v-2.14c0-.05.04-.1.1-.1s.1.04.1.1v2.14c0,.05-.04.1-.1.1Z"/>
            <path class="cls-12" d="m12.84,32.18c-.05,0-.1-.04-.1-.1v-2.14c0-.05.04-.1.1-.1s.1.04.1.1v2.14c0,.05-.04.1-.1.1Z"/>
            <path class="cls-12" d="m13.61,32.18c-.05,0-.1-.04-.1-.1v-2.14c0-.05.04-.1.1-.1s.1.04.1.1v2.14c0,.05-.04.1-.1.1Z"/>
            <path class="cls-12" d="m14.38,32.18c-.05,0-.1-.04-.1-.1v-2.14c0-.05.04-.1.1-.1s.1.04.1.1v2.14c0,.05-.04.1-.1.1Z"/>
            <path class="cls-12" d="m15.14,32.18c-.05,0-.1-.04-.1-.1v-2.14c0-.05.04-.1.1-.1s.1.04.1.1v2.14c0,.05-.04.1-.1.1Z"/>
            <path class="cls-12" d="m15.91,32.18c-.05,0-.1-.04-.1-.1v-2.14c0-.05.04-.1.1-.1s.1.04.1.1v2.14c0,.05-.04.1-.1.1Z"/>
            <path class="cls-12" d="m16.68,32.18c-.05,0-.1-.04-.1-.1v-2.14c0-.05.04-.1.1-.1s.1.04.1.1v2.14c0,.05-.04.1-.1.1Z"/>
          </g>
        </g>
        <g>
          <rect class="cls-18" x="18.04" y="30.02" width="11.86" height="2.46" rx=".07" ry=".07"/>
          <rect class="cls-1" x="18.04" y="29.63" width="11.86" height="2.74" rx=".07" ry=".07"/>
          <rect class="cls-5" x="18.04" y="29.63" width="2.5" height="2.74" transform="translate(38.58 62) rotate(180)"/>
          <rect class="cls-15" x="18.04" y="29.63" width=".76" height="2.74" transform="translate(36.83 62) rotate(180)"/>
          <rect class="cls-2" x="27.52" y="29.63" width=".88" height="2.74" transform="translate(55.92 62) rotate(180)"/>
          <g class="cls-20">
            <path class="cls-12" d="m18.6,32.18c-.05,0-.1-.04-.1-.1v-2.14c0-.05.04-.1.1-.1s.1.04.1.1v2.14c0,.05-.04.1-.1.1Z"/>
            <path class="cls-12" d="m19.37,32.18c-.05,0-.1-.04-.1-.1v-2.14c0-.05.04-.1.1-.1s.1.04.1.1v2.14c0,.05-.04.1-.1.1Z"/>
            <path class="cls-12" d="m20.14,32.18c-.05,0-.1-.04-.1-.1v-2.14c0-.05.04-.1.1-.1s.1.04.1.1v2.14c0,.05-.04.1-.1.1Z"/>
            <path class="cls-12" d="m20.9,32.18c-.05,0-.1-.04-.1-.1v-2.14c0-.05.04-.1.1-.1s.1.04.1.1v2.14c0,.05-.04.1-.1.1Z"/>
            <path class="cls-12" d="m21.67,32.18c-.05,0-.1-.04-.1-.1v-2.14c0-.05.04-.1.1-.1s.1.04.1.1v2.14c0,.05-.04.1-.1.1Z"/>
            <path class="cls-12" d="m22.44,32.18c-.05,0-.1-.04-.1-.1v-2.14c0-.05.04-.1.1-.1s.1.04.1.1v2.14c0,.05-.04.1-.1.1Z"/>
            <path class="cls-12" d="m23.2,32.18c-.05,0-.1-.04-.1-.1v-2.14c0-.05.04-.1.1-.1s.1.04.1.1v2.14c0,.05-.04.1-.1.1Z"/>
            <path class="cls-12" d="m23.97,32.18c-.05,0-.1-.04-.1-.1v-2.14c0-.05.04-.1.1-.1s.1.04.1.1v2.14c0,.05-.04.1-.1.1Z"/>
            <path class="cls-12" d="m24.74,32.18c-.05,0-.1-.04-.1-.1v-2.14c0-.05.04-.1.1-.1s.1.04.1.1v2.14c0,.05-.04.1-.1.1Z"/>
            <path class="cls-12" d="m25.5,32.18c-.05,0-.1-.04-.1-.1v-2.14c0-.05.04-.1.1-.1s.1.04.1.1v2.14c0,.05-.04.1-.1.1Z"/>
            <path class="cls-12" d="m26.27,32.18c-.05,0-.1-.04-.1-.1v-2.14c0-.05.04-.1.1-.1s.1.04.1.1v2.14c0,.05-.04.1-.1.1Z"/>
            <path class="cls-12" d="m27.03,32.18c-.05,0-.1-.04-.1-.1v-2.14c0-.05.04-.1.1-.1s.1.04.1.1v2.14c0,.05-.04.1-.1.1Z"/>
            <path class="cls-12" d="m27.8,32.18c-.05,0-.1-.04-.1-.1v-2.14c0-.05.04-.1.1-.1s.1.04.1.1v2.14c0,.05-.04.1-.1.1Z"/>
            <path class="cls-12" d="m28.57,32.18c-.05,0-.1-.04-.1-.1v-2.14c0-.05.04-.1.1-.1s.1.04.1.1v2.14c0,.05-.04.1-.1.1Z"/>
            <path class="cls-12" d="m29.33,32.18c-.05,0-.1-.04-.1-.1v-2.14c0-.05.04-.1.1-.1s.1.04.1.1v2.14c0,.05-.04.1-.1.1Z"/>
          </g>
        </g>
        <g>
          <rect class="cls-18" x="31.9" y="30.02" width="11.86" height="2.46" rx=".07" ry=".07"/>
          <rect class="cls-1" x="31.9" y="29.63" width="11.86" height="2.74" rx=".07" ry=".07"/>
          <rect class="cls-5" x="31.9" y="29.63" width="2.5" height="2.74" transform="translate(66.29 62) rotate(180)"/>
          <rect class="cls-15" x="31.9" y="29.63" width=".76" height="2.74" transform="translate(64.55 62) rotate(180)"/>
          <rect class="cls-2" x="41.38" y="29.63" width=".88" height="2.74" transform="translate(83.63 62) rotate(180)"/>
          <g class="cls-20">
            <path class="cls-12" d="m32.46,32.18c-.05,0-.1-.04-.1-.1v-2.14c0-.05.04-.1.1-.1s.1.04.1.1v2.14c0,.05-.04.1-.1.1Z"/>
            <path class="cls-12" d="m33.23,32.18c-.05,0-.1-.04-.1-.1v-2.14c0-.05.04-.1.1-.1s.1.04.1.1v2.14c0,.05-.04.1-.1.1Z"/>
            <path class="cls-12" d="m33.99,32.18c-.05,0-.1-.04-.1-.1v-2.14c0-.05.04-.1.1-.1s.1.04.1.1v2.14c0,.05-.04.1-.1.1Z"/>
            <path class="cls-12" d="m34.76,32.18c-.05,0-.1-.04-.1-.1v-2.14c0-.05.04-.1.1-.1s.1.04.1.1v2.14c0,.05-.04.1-.1.1Z"/>
            <path class="cls-12" d="m35.53,32.18c-.05,0-.1-.04-.1-.1v-2.14c0-.05.04-.1.1-.1s.1.04.1.1v2.14c0,.05-.04.1-.1.1Z"/>
            <path class="cls-12" d="m36.29,32.18c-.05,0-.1-.04-.1-.1v-2.14c0-.05.04-.1.1-.1s.1.04.1.1v2.14c0,.05-.04.1-.1.1Z"/>
            <path class="cls-12" d="m37.06,32.18c-.05,0-.1-.04-.1-.1v-2.14c0-.05.04-.1.1-.1s.1.04.1.1v2.14c0,.05-.04.1-.1.1Z"/>
            <path class="cls-12" d="m37.83,32.18c-.05,0-.1-.04-.1-.1v-2.14c0-.05.04-.1.1-.1s.1.04.1.1v2.14c0,.05-.04.1-.1.1Z"/>
            <path class="cls-12" d="m38.59,32.18c-.05,0-.1-.04-.1-.1v-2.14c0-.05.04-.1.1-.1s.1.04.1.1v2.14c0,.05-.04.1-.1.1Z"/>
            <path class="cls-12" d="m39.36,32.18c-.05,0-.1-.04-.1-.1v-2.14c0-.05.04-.1.1-.1s.1.04.1.1v2.14c0,.05-.04.1-.1.1Z"/>
            <path class="cls-12" d="m40.13,32.18c-.05,0-.1-.04-.1-.1v-2.14c0-.05.04-.1.1-.1s.1.04.1.1v2.14c0,.05-.04.1-.1.1Z"/>
            <path class="cls-12" d="m40.89,32.18c-.05,0-.1-.04-.1-.1v-2.14c0-.05.04-.1.1-.1s.1.04.1.1v2.14c0,.05-.04.1-.1.1Z"/>
            <path class="cls-12" d="m41.66,32.18c-.05,0-.1-.04-.1-.1v-2.14c0-.05.04-.1.1-.1s.1.04.1.1v2.14c0,.05-.04.1-.1.1Z"/>
            <path class="cls-12" d="m42.43,32.18c-.05,0-.1-.04-.1-.1v-2.14c0-.05.04-.1.1-.1s.1.04.1.1v2.14c0,.05-.04.1-.1.1Z"/>
            <path class="cls-12" d="m43.19,32.18c-.05,0-.1-.04-.1-.1v-2.14c0-.05.04-.1.1-.1s.1.04.1.1v2.14c0,.05-.04.1-.1.1Z"/>
          </g>
        </g>
        <g>
          <rect class="cls-18" x="28" y="27.16" width="11.86" height="2.46" rx=".07" ry=".07"/>
          <rect class="cls-1" x="28" y="26.78" width="11.86" height="2.74" rx=".07" ry=".07"/>
          <rect class="cls-9" x="28" y="26.78" width="11.86" height="2.74" transform="translate(67.87 56.29) rotate(180)"/>
          <rect class="cls-15" x="28.01" y="26.78" width="1.09" height="2.74" transform="translate(57.11 56.29) rotate(180)"/>
          <rect class="cls-14" x="37.49" y="26.78" width=".88" height="2.74" transform="translate(75.85 56.29) rotate(180)"/>
          <g class="cls-20">
            <path class="cls-12" d="m28.57,29.33c-.05,0-.1-.04-.1-.1v-2.14c0-.05.04-.1.1-.1s.1.04.1.1v2.14c0,.05-.04.1-.1.1Z"/>
            <path class="cls-12" d="m29.33,29.33c-.05,0-.1-.04-.1-.1v-2.14c0-.05.04-.1.1-.1s.1.04.1.1v2.14c0,.05-.04.1-.1.1Z"/>
            <path class="cls-12" d="m30.1,29.33c-.05,0-.1-.04-.1-.1v-2.14c0-.05.04-.1.1-.1s.1.04.1.1v2.14c0,.05-.04.1-.1.1Z"/>
            <path class="cls-12" d="m30.87,29.33c-.05,0-.1-.04-.1-.1v-2.14c0-.05.04-.1.1-.1s.1.04.1.1v2.14c0,.05-.04.1-.1.1Z"/>
            <path class="cls-12" d="m31.63,29.33c-.05,0-.1-.04-.1-.1v-2.14c0-.05.04-.1.1-.1s.1.04.1.1v2.14c0,.05-.04.1-.1.1Z"/>
            <path class="cls-12" d="m32.4,29.33c-.05,0-.1-.04-.1-.1v-2.14c0-.05.04-.1.1-.1s.1.04.1.1v2.14c0,.05-.04.1-.1.1Z"/>
            <path class="cls-12" d="m33.17,29.33c-.05,0-.1-.04-.1-.1v-2.14c0-.05.04-.1.1-.1s.1.04.1.1v2.14c0,.05-.04.1-.1.1Z"/>
            <path class="cls-12" d="m33.93,29.33c-.05,0-.1-.04-.1-.1v-2.14c0-.05.04-.1.1-.1s.1.04.1.1v2.14c0,.05-.04.1-.1.1Z"/>
            <path class="cls-12" d="m34.7,29.33c-.05,0-.1-.04-.1-.1v-2.14c0-.05.04-.1.1-.1s.1.04.1.1v2.14c0,.05-.04.1-.1.1Z"/>
            <path class="cls-12" d="m35.47,29.33c-.05,0-.1-.04-.1-.1v-2.14c0-.05.04-.1.1-.1s.1.04.1.1v2.14c0,.05-.04.1-.1.1Z"/>
            <path class="cls-12" d="m36.23,29.33c-.05,0-.1-.04-.1-.1v-2.14c0-.05.04-.1.1-.1s.1.04.1.1v2.14c0,.05-.04.1-.1.1Z"/>
            <path class="cls-12" d="m37,29.33c-.05,0-.1-.04-.1-.1v-2.14c0-.05.04-.1.1-.1s.1.04.1.1v2.14c0,.05-.04.1-.1.1Z"/>
            <path class="cls-12" d="m37.77,29.33c-.05,0-.1-.04-.1-.1v-2.14c0-.05.04-.1.1-.1s.1.04.1.1v2.14c0,.05-.04.1-.1.1Z"/>
            <path class="cls-12" d="m38.53,29.33c-.05,0-.1-.04-.1-.1v-2.14c0-.05.04-.1.1-.1s.1.04.1.1v2.14c0,.05-.04.1-.1.1Z"/>
            <path class="cls-12" d="m39.3,29.33c-.05,0-.1-.04-.1-.1v-2.14c0-.05.04-.1.1-.1s.1.04.1.1v2.14c0,.05-.04.1-.1.1Z"/>
          </g>
        </g>
        <g>
          <rect class="cls-18" x="15.54" y="27.16" width="11.86" height="2.46" rx=".07" ry=".07"/>
          <rect class="cls-1" x="15.54" y="26.78" width="11.86" height="2.74" rx=".07" ry=".07"/>
          <rect class="cls-5" x="15.54" y="26.78" width="5.53" height="2.74" transform="translate(36.62 56.29) rotate(180)"/>
          <rect class="cls-15" x="15.54" y="26.78" width=".76" height="2.74" transform="translate(31.85 56.29) rotate(180)"/>
          <rect class="cls-2" x="25.03" y="26.78" width=".88" height="2.74" transform="translate(50.93 56.29) rotate(180)"/>
          <g class="cls-20">
            <path class="cls-12" d="m16.11,29.33c-.05,0-.1-.04-.1-.1v-2.14c0-.05.04-.1.1-.1s.1.04.1.1v2.14c0,.05-.04.1-.1.1Z"/>
            <path class="cls-12" d="m16.88,29.33c-.05,0-.1-.04-.1-.1v-2.14c0-.05.04-.1.1-.1s.1.04.1.1v2.14c0,.05-.04.1-.1.1Z"/>
            <path class="cls-12" d="m17.64,29.33c-.05,0-.1-.04-.1-.1v-2.14c0-.05.04-.1.1-.1s.1.04.1.1v2.14c0,.05-.04.1-.1.1Z"/>
            <path class="cls-12" d="m18.41,29.33c-.05,0-.1-.04-.1-.1v-2.14c0-.05.04-.1.1-.1s.1.04.1.1v2.14c0,.05-.04.1-.1.1Z"/>
            <path class="cls-12" d="m19.18,29.33c-.05,0-.1-.04-.1-.1v-2.14c0-.05.04-.1.1-.1s.1.04.1.1v2.14c0,.05-.04.1-.1.1Z"/>
            <path class="cls-12" d="m19.94,29.33c-.05,0-.1-.04-.1-.1v-2.14c0-.05.04-.1.1-.1s.1.04.1.1v2.14c0,.05-.04.1-.1.1Z"/>
            <path class="cls-12" d="m20.71,29.33c-.05,0-.1-.04-.1-.1v-2.14c0-.05.04-.1.1-.1s.1.04.1.1v2.14c0,.05-.04.1-.1.1Z"/>
            <path class="cls-12" d="m21.47,29.33c-.05,0-.1-.04-.1-.1v-2.14c0-.05.04-.1.1-.1s.1.04.1.1v2.14c0,.05-.04.1-.1.1Z"/>
            <path class="cls-12" d="m22.24,29.33c-.05,0-.1-.04-.1-.1v-2.14c0-.05.04-.1.1-.1s.1.04.1.1v2.14c0,.05-.04.1-.1.1Z"/>
            <path class="cls-12" d="m23.01,29.33c-.05,0-.1-.04-.1-.1v-2.14c0-.05.04-.1.1-.1s.1.04.1.1v2.14c0,.05-.04.1-.1.1Z"/>
            <path class="cls-12" d="m23.77,29.33c-.05,0-.1-.04-.1-.1v-2.14c0-.05.04-.1.1-.1s.1.04.1.1v2.14c0,.05-.04.1-.1.1Z"/>
            <path class="cls-12" d="m24.54,29.33c-.05,0-.1-.04-.1-.1v-2.14c0-.05.04-.1.1-.1s.1.04.1.1v2.14c0,.05-.04.1-.1.1Z"/>
            <path class="cls-12" d="m25.31,29.33c-.05,0-.1-.04-.1-.1v-2.14c0-.05.04-.1.1-.1s.1.04.1.1v2.14c0,.05-.04.1-.1.1Z"/>
            <path class="cls-12" d="m26.07,29.33c-.05,0-.1-.04-.1-.1v-2.14c0-.05.04-.1.1-.1s.1.04.1.1v2.14c0,.05-.04.1-.1.1Z"/>
            <path class="cls-12" d="m26.84,29.33c-.05,0-.1-.04-.1-.1v-2.14c0-.05.04-.1.1-.1s.1.04.1.1v2.14c0,.05-.04.1-.1.1Z"/>
          </g>
        </g>
        <g>
          <rect class="cls-18" x="14.29" y="24.29" width="11.86" height="2.46" rx=".07" ry=".07"/>
          <rect class="cls-1" x="14.29" y="23.9" width="11.86" height="2.74" rx=".07" ry=".07"/>
          <rect class="cls-5" x="14.29" y="23.9" width="5.95" height="2.74" transform="translate(34.52 50.54) rotate(180)"/>
          <rect class="cls-15" x="14.29" y="23.9" width=".76" height="2.74" transform="translate(29.33 50.54) rotate(180)"/>
          <rect class="cls-2" x="23.77" y="23.9" width=".88" height="2.74" transform="translate(48.41 50.54) rotate(180)"/>
          <g class="cls-20">
            <path class="cls-12" d="m14.85,26.46c-.05,0-.1-.04-.1-.1v-2.14c0-.05.04-.1.1-.1s.1.04.1.1v2.14c0,.05-.04.1-.1.1Z"/>
            <path class="cls-12" d="m15.62,26.46c-.05,0-.1-.04-.1-.1v-2.14c0-.05.04-.1.1-.1s.1.04.1.1v2.14c0,.05-.04.1-.1.1Z"/>
            <path class="cls-12" d="m16.38,26.46c-.05,0-.1-.04-.1-.1v-2.14c0-.05.04-.1.1-.1s.1.04.1.1v2.14c0,.05-.04.1-.1.1Z"/>
            <path class="cls-12" d="m17.15,26.46c-.05,0-.1-.04-.1-.1v-2.14c0-.05.04-.1.1-.1s.1.04.1.1v2.14c0,.05-.04.1-.1.1Z"/>
            <path class="cls-12" d="m17.92,26.46c-.05,0-.1-.04-.1-.1v-2.14c0-.05.04-.1.1-.1s.1.04.1.1v2.14c0,.05-.04.1-.1.1Z"/>
            <path class="cls-12" d="m18.68,26.46c-.05,0-.1-.04-.1-.1v-2.14c0-.05.04-.1.1-.1s.1.04.1.1v2.14c0,.05-.04.1-.1.1Z"/>
            <path class="cls-12" d="m19.45,26.46c-.05,0-.1-.04-.1-.1v-2.14c0-.05.04-.1.1-.1s.1.04.1.1v2.14c0,.05-.04.1-.1.1Z"/>
            <path class="cls-12" d="m20.22,26.46c-.05,0-.1-.04-.1-.1v-2.14c0-.05.04-.1.1-.1s.1.04.1.1v2.14c0,.05-.04.1-.1.1Z"/>
            <path class="cls-12" d="m20.98,26.46c-.05,0-.1-.04-.1-.1v-2.14c0-.05.04-.1.1-.1s.1.04.1.1v2.14c0,.05-.04.1-.1.1Z"/>
            <path class="cls-12" d="m21.75,26.46c-.05,0-.1-.04-.1-.1v-2.14c0-.05.04-.1.1-.1s.1.04.1.1v2.14c0,.05-.04.1-.1.1Z"/>
            <path class="cls-12" d="m22.51,26.46c-.05,0-.1-.04-.1-.1v-2.14c0-.05.04-.1.1-.1s.1.04.1.1v2.14c0,.05-.04.1-.1.1Z"/>
            <path class="cls-12" d="m23.28,26.46c-.05,0-.1-.04-.1-.1v-2.14c0-.05.04-.1.1-.1s.1.04.1.1v2.14c0,.05-.04.1-.1.1Z"/>
            <path class="cls-12" d="m24.05,26.46c-.05,0-.1-.04-.1-.1v-2.14c0-.05.04-.1.1-.1s.1.04.1.1v2.14c0,.05-.04.1-.1.1Z"/>
            <path class="cls-12" d="m24.81,26.46c-.05,0-.1-.04-.1-.1v-2.14c0-.05.04-.1.1-.1s.1.04.1.1v2.14c0,.05-.04.1-.1.1Z"/>
            <path class="cls-12" d="m25.58,26.46c-.05,0-.1-.04-.1-.1v-2.14c0-.05.04-.1.1-.1s.1.04.1.1v2.14c0,.05-.04.1-.1.1Z"/>
          </g>
        </g>
        <g>
          <rect class="cls-18" x="28.65" y="24.29" width="11.86" height="2.46" rx=".07" ry=".07"/>
          <rect class="cls-1" x="28.65" y="23.9" width="11.86" height="2.74" rx=".07" ry=".07"/>
          <rect class="cls-5" x="28.65" y="23.9" width="5.95" height="2.74" transform="translate(63.26 50.54) rotate(180)"/>
          <rect class="cls-15" x="28.65" y="23.9" width=".76" height="2.74" transform="translate(58.07 50.54) rotate(180)"/>
          <rect class="cls-2" x="38.14" y="23.9" width=".88" height="2.74" transform="translate(77.15 50.54) rotate(180)"/>
          <g class="cls-20">
            <path class="cls-12" d="m29.22,26.46c-.05,0-.1-.04-.1-.1v-2.14c0-.05.04-.1.1-.1s.1.04.1.1v2.14c0,.05-.04.1-.1.1Z"/>
            <path class="cls-12" d="m29.99,26.46c-.05,0-.1-.04-.1-.1v-2.14c0-.05.04-.1.1-.1s.1.04.1.1v2.14c0,.05-.04.1-.1.1Z"/>
            <path class="cls-12" d="m30.75,26.46c-.05,0-.1-.04-.1-.1v-2.14c0-.05.04-.1.1-.1s.1.04.1.1v2.14c0,.05-.04.1-.1.1Z"/>
            <path class="cls-12" d="m31.52,26.46c-.05,0-.1-.04-.1-.1v-2.14c0-.05.04-.1.1-.1s.1.04.1.1v2.14c0,.05-.04.1-.1.1Z"/>
            <path class="cls-12" d="m32.28,26.46c-.05,0-.1-.04-.1-.1v-2.14c0-.05.04-.1.1-.1s.1.04.1.1v2.14c0,.05-.04.1-.1.1Z"/>
            <path class="cls-12" d="m33.05,26.46c-.05,0-.1-.04-.1-.1v-2.14c0-.05.04-.1.1-.1s.1.04.1.1v2.14c0,.05-.04.1-.1.1Z"/>
            <path class="cls-12" d="m33.82,26.46c-.05,0-.1-.04-.1-.1v-2.14c0-.05.04-.1.1-.1s.1.04.1.1v2.14c0,.05-.04.1-.1.1Z"/>
            <path class="cls-12" d="m34.58,26.46c-.05,0-.1-.04-.1-.1v-2.14c0-.05.04-.1.1-.1s.1.04.1.1v2.14c0,.05-.04.1-.1.1Z"/>
            <path class="cls-12" d="m35.35,26.46c-.05,0-.1-.04-.1-.1v-2.14c0-.05.04-.1.1-.1s.1.04.1.1v2.14c0,.05-.04.1-.1.1Z"/>
            <path class="cls-12" d="m36.12,26.46c-.05,0-.1-.04-.1-.1v-2.14c0-.05.04-.1.1-.1s.1.04.1.1v2.14c0,.05-.04.1-.1.1Z"/>
            <path class="cls-12" d="m36.88,26.46c-.05,0-.1-.04-.1-.1v-2.14c0-.05.04-.1.1-.1s.1.04.1.1v2.14c0,.05-.04.1-.1.1Z"/>
            <path class="cls-12" d="m37.65,26.46c-.05,0-.1-.04-.1-.1v-2.14c0-.05.04-.1.1-.1s.1.04.1.1v2.14c0,.05-.04.1-.1.1Z"/>
            <path class="cls-12" d="m38.42,26.46c-.05,0-.1-.04-.1-.1v-2.14c0-.05.04-.1.1-.1s.1.04.1.1v2.14c0,.05-.04.1-.1.1Z"/>
            <path class="cls-12" d="m39.18,26.46c-.05,0-.1-.04-.1-.1v-2.14c0-.05.04-.1.1-.1s.1.04.1.1v2.14c0,.05-.04.1-.1.1Z"/>
            <path class="cls-12" d="m39.95,26.46c-.05,0-.1-.04-.1-.1v-2.14c0-.05.04-.1.1-.1s.1.04.1.1v2.14c0,.05-.04.1-.1.1Z"/>
          </g>
        </g>
        <g>
          <rect class="cls-18" x="28.65" y="21.47" width="11.86" height="2.46" rx=".07" ry=".07"/>
          <rect class="cls-3" x="28.65" y="21.08" width="11.86" height="2.74" rx=".07" ry=".07"/>
          <rect class="cls-5" x="28.65" y="21.08" width="5.85" height="2.74" transform="translate(63.16 44.9) rotate(180)"/>
          <rect class="cls-4" x="28.65" y="21.08" width="11.86" height="2.74" transform="translate(69.17 44.9) rotate(180)"/>
          <rect class="cls-16" x="38.14" y="21.08" width=".88" height="2.74" transform="translate(77.15 44.9) rotate(180)"/>
          <g class="cls-20">
            <path class="cls-12" d="m29.22,23.63c-.05,0-.1-.04-.1-.1v-2.14c0-.05.04-.1.1-.1s.1.04.1.1v2.14c0,.05-.04.1-.1.1Z"/>
            <path class="cls-12" d="m29.99,23.63c-.05,0-.1-.04-.1-.1v-2.14c0-.05.04-.1.1-.1s.1.04.1.1v2.14c0,.05-.04.1-.1.1Z"/>
            <path class="cls-12" d="m30.75,23.63c-.05,0-.1-.04-.1-.1v-2.14c0-.05.04-.1.1-.1s.1.04.1.1v2.14c0,.05-.04.1-.1.1Z"/>
            <path class="cls-12" d="m31.52,23.63c-.05,0-.1-.04-.1-.1v-2.14c0-.05.04-.1.1-.1s.1.04.1.1v2.14c0,.05-.04.1-.1.1Z"/>
            <path class="cls-12" d="m32.28,23.63c-.05,0-.1-.04-.1-.1v-2.14c0-.05.04-.1.1-.1s.1.04.1.1v2.14c0,.05-.04.1-.1.1Z"/>
            <path class="cls-12" d="m33.05,23.63c-.05,0-.1-.04-.1-.1v-2.14c0-.05.04-.1.1-.1s.1.04.1.1v2.14c0,.05-.04.1-.1.1Z"/>
            <path class="cls-12" d="m33.82,23.63c-.05,0-.1-.04-.1-.1v-2.14c0-.05.04-.1.1-.1s.1.04.1.1v2.14c0,.05-.04.1-.1.1Z"/>
            <path class="cls-12" d="m34.58,23.63c-.05,0-.1-.04-.1-.1v-2.14c0-.05.04-.1.1-.1s.1.04.1.1v2.14c0,.05-.04.1-.1.1Z"/>
            <path class="cls-12" d="m35.35,23.63c-.05,0-.1-.04-.1-.1v-2.14c0-.05.04-.1.1-.1s.1.04.1.1v2.14c0,.05-.04.1-.1.1Z"/>
            <path class="cls-12" d="m36.12,23.63c-.05,0-.1-.04-.1-.1v-2.14c0-.05.04-.1.1-.1s.1.04.1.1v2.14c0,.05-.04.1-.1.1Z"/>
            <path class="cls-12" d="m36.88,23.63c-.05,0-.1-.04-.1-.1v-2.14c0-.05.04-.1.1-.1s.1.04.1.1v2.14c0,.05-.04.1-.1.1Z"/>
            <path class="cls-12" d="m37.65,23.63c-.05,0-.1-.04-.1-.1v-2.14c0-.05.04-.1.1-.1s.1.04.1.1v2.14c0,.05-.04.1-.1.1Z"/>
            <path class="cls-12" d="m38.42,23.63c-.05,0-.1-.04-.1-.1v-2.14c0-.05.04-.1.1-.1s.1.04.1.1v2.14c0,.05-.04.1-.1.1Z"/>
            <path class="cls-12" d="m39.18,23.63c-.05,0-.1-.04-.1-.1v-2.14c0-.05.04-.1.1-.1s.1.04.1.1v2.14c0,.05-.04.1-.1.1Z"/>
            <path class="cls-12" d="m39.95,23.63c-.05,0-.1-.04-.1-.1v-2.14c0-.05.04-.1.1-.1s.1.04.1.1v2.14c0,.05-.04.1-.1.1Z"/>
          </g>
        </g>
        <g>
          <rect class="cls-18" x="29.34" y="18.62" width="11.86" height="2.46" rx=".07" ry=".07"/>
          <rect class="cls-1" x="29.34" y="18.23" width="11.86" height="2.74" rx=".07" ry=".07"/>
          <rect class="cls-5" x="29.34" y="18.23" width="5.91" height="2.74" transform="translate(64.6 39.19) rotate(180)"/>
          <rect class="cls-15" x="29.34" y="18.23" width=".76" height="2.74" transform="translate(59.45 39.19) rotate(180)"/>
          <rect class="cls-15" x="28.65" y="21.1" width=".76" height="2.74" transform="translate(58.07 44.93) rotate(180)"/>
          <rect class="cls-13" x="38.83" y="18.23" width=".88" height="2.74" transform="translate(78.53 39.19) rotate(180)"/>
          <g class="cls-20">
            <path class="cls-12" d="m29.91,20.78c-.05,0-.1-.04-.1-.1v-2.14c0-.05.04-.1.1-.1s.1.04.1.1v2.14c0,.05-.04.1-.1.1Z"/>
            <path class="cls-12" d="m30.68,20.78c-.05,0-.1-.04-.1-.1v-2.14c0-.05.04-.1.1-.1s.1.04.1.1v2.14c0,.05-.04.1-.1.1Z"/>
            <path class="cls-12" d="m31.44,20.78c-.05,0-.1-.04-.1-.1v-2.14c0-.05.04-.1.1-.1s.1.04.1.1v2.14c0,.05-.04.1-.1.1Z"/>
            <path class="cls-12" d="m32.21,20.78c-.05,0-.1-.04-.1-.1v-2.14c0-.05.04-.1.1-.1s.1.04.1.1v2.14c0,.05-.04.1-.1.1Z"/>
            <path class="cls-12" d="m32.97,20.78c-.05,0-.1-.04-.1-.1v-2.14c0-.05.04-.1.1-.1s.1.04.1.1v2.14c0,.05-.04.1-.1.1Z"/>
            <path class="cls-12" d="m33.74,20.78c-.05,0-.1-.04-.1-.1v-2.14c0-.05.04-.1.1-.1s.1.04.1.1v2.14c0,.05-.04.1-.1.1Z"/>
            <path class="cls-12" d="m34.51,20.78c-.05,0-.1-.04-.1-.1v-2.14c0-.05.04-.1.1-.1s.1.04.1.1v2.14c0,.05-.04.1-.1.1Z"/>
            <path class="cls-12" d="m35.27,20.78c-.05,0-.1-.04-.1-.1v-2.14c0-.05.04-.1.1-.1s.1.04.1.1v2.14c0,.05-.04.1-.1.1Z"/>
            <path class="cls-12" d="m36.04,20.78c-.05,0-.1-.04-.1-.1v-2.14c0-.05.04-.1.1-.1s.1.04.1.1v2.14c0,.05-.04.1-.1.1Z"/>
            <path class="cls-12" d="m36.81,20.78c-.05,0-.1-.04-.1-.1v-2.14c0-.05.04-.1.1-.1s.1.04.1.1v2.14c0,.05-.04.1-.1.1Z"/>
            <path class="cls-12" d="m37.57,20.78c-.05,0-.1-.04-.1-.1v-2.14c0-.05.04-.1.1-.1s.1.04.1.1v2.14c0,.05-.04.1-.1.1Z"/>
            <path class="cls-12" d="m38.34,20.78c-.05,0-.1-.04-.1-.1v-2.14c0-.05.04-.1.1-.1s.1.04.1.1v2.14c0,.05-.04.1-.1.1Z"/>
            <path class="cls-12" d="m39.11,20.78c-.05,0-.1-.04-.1-.1v-2.14c0-.05.04-.1.1-.1s.1.04.1.1v2.14c0,.05-.04.1-.1.1Z"/>
            <path class="cls-12" d="m39.87,20.78c-.05,0-.1-.04-.1-.1v-2.14c0-.05.04-.1.1-.1s.1.04.1.1v2.14c0,.05-.04.1-.1.1Z"/>
            <path class="cls-12" d="m40.64,20.78c-.05,0-.1-.04-.1-.1v-2.14c0-.05.04-.1.1-.1s.1.04.1.1v2.14c0,.05-.04.1-.1.1Z"/>
          </g>
        </g>
        <g>
          <polygon class="cls-15" points="26.17 26.64 26.17 23.94 25.03 23.94 23.12 26.64 26.17 26.64"/>
          <path class="cls-15" d="m27.41,29.49v-2.63s-.03-.06-.06-.06h-1.08l.75,2.69h.39Z"/>
          <polygon class="cls-15" points="29.91 32.35 29.91 29.65 27.13 29.65 28.11 32.35 29.91 32.35"/>
          <polygon class="cls-15" points="17.3 32.35 17.3 29.65 15.54 29.65 16.21 32.35 17.3 32.35"/>
          <polygon class="cls-15" points="37.16 32.35 37.77 29.65 31.9 29.65 31.9 32.35 37.16 32.35"/>
          <g class="cls-22">
            <polygon class="cls-15" points="29.39 18.23 25.29 23.65 27.74 23.58 28.77 21.08 29.28 20.01 29.39 18.23"/>
          </g>
        </g>
      </g>
    </g>
  </g>
</svg>