<?xml version="1.0" encoding="UTF-8"?>
<svg id="Layer_1" xmlns="http://www.w3.org/2000/svg" viewBox="0 0 17.26 20.51">
  <defs>
    <style>
      .cls-1 {
        fill: #fff;
      }
    </style>
  </defs>
  <path class="cls-1" d="M15.68,9.46c-2.3-1.65-4.59-3.3-6.88-4.95-.07-.05-.13-.08-.19-.07-.05,0-.09.03-.15.07-2.27,1.64-4.55,3.28-6.83,4.92-.13.1-.19.19-.19.36,0,3.58,0,7.16,0,10.73h6.7c0-.68,0-1.35,0-2.03-.05,0-.09,0-.14,0q-.47,0-.46-.48c0-.17,0-.33,0-.5-.38,0-.76-.02-1.14,0-.8.01-1.25-.56-1.24-1.23.02-1.29,0-2.58,0-3.87,0-.16.04-.2.2-.2.34.01.68,0,1.02,0,0-.12.01-.24.02-.36,0-.71,0-1.41,0-2.12,0-.09.02-.13.12-.13.25,0,.51,0,.76,0,.11,0,.12.04.12.13,0,.71,0,1.41,0,2.12,0,.12,0,.24,0,.36h1.22c.42,0,.84,0,1.27,0,0-.12,0-.24,0-.36,0-.71,0-1.41,0-2.12,0-.09,0-.13.12-.13.25,0,.51,0,.76,0,.1,0,.12.04.12.13,0,.71,0,1.41,0,2.12,0,.12.01.24.02.37.35,0,.71,0,1.06,0,.13,0,.15.03.15.16,0,1.32,0,2.64,0,3.97,0,.7-.47,1.15-1.17,1.17-.4,0-.8,0-1.2.01,0,.28,0,.56,0,.84,0,.12-.04.15-.15.14-.15,0-.31,0-.46,0,0,.68,0,1.35,0,2.03h6.7c0-3.59,0-7.18,0-10.77,0-.12-.03-.2-.14-.28Z"/>
  <rect class="cls-1" x="4.7" y="8.81" width="7.9" height="11.7"/>
  <path class="cls-1" d="M17.26,6.25c0-.12-.07-.16-.14-.22C14.34,4.04,11.55,2.05,8.77.06c-.06-.04-.11-.06-.16-.06-.03,0-.07.02-.11.05C5.71,2.05,2.92,4.05.13,6.04.03,6.11,0,6.19,0,6.31c0,.41,0,.82,0,1.22v1.24c.09,0,.13-.06.19-.1,2.76-1.97,5.53-3.95,8.29-5.93.05-.04.09-.06.13-.06.05,0,.11.01.18.06,2.5,1.8,5.01,3.59,7.52,5.38.31.22.62.44.96.68,0-.88,0-1.72,0-2.56Z"/>
</svg>