<?xml version="1.0" encoding="utf-8"?>
<!-- Generator: Adobe Illustrator 22.0.0, SVG Export Plug-In . SVG Version: 6.00 Build 0)  -->
<svg version="1.1" id="Layer_1" xmlns="http://www.w3.org/2000/svg" xmlns:xlink="http://www.w3.org/1999/xlink" x="0px" y="0px"
	 viewBox="0 0 72 98.9" style="enable-background:new 0 0 72 98.9;" xml:space="preserve">
<style type="text/css">
	.st0{clip-path:url(#SVGID_2_);fill:#FFFFFF;}
</style>
<g>
	<defs>
		<rect id="SVGID_1_" y="0" width="72" height="98.9"/>
	</defs>
	<clipPath id="SVGID_2_">
		<use xlink:href="#SVGID_1_"  style="overflow:visible;"/>
	</clipPath>
	<path class="st0" d="M62.2,98.9L62.2,98.9c-5.4,0-9.8-4.4-9.8-9.8V9.8c0-5.4,4.4-9.8,9.8-9.8S72,4.4,72,9.8v79.3
		C72,94.5,67.6,98.9,62.2,98.9"/>
	<path class="st0" d="M9.8,98.9L9.8,98.9c-5.4,0-9.8-4.4-9.8-9.8V9.8C0,4.4,4.4,0,9.8,0c5.4,0,9.8,4.4,9.8,9.8v79.3
		C19.6,94.5,15.2,98.9,9.8,98.9"/>
</g>
</svg>
